<?xml version="1.0" standalone="no"?><!DOCTYPE svg PUBLIC "-//W3C//DTD SVG 1.1//EN" "http://www.w3.org/Graphics/SVG/1.1/DTD/svg11.dtd"><svg t="1585805985864" class="icon" viewBox="0 0 1024 1024" version="1.1" xmlns="http://www.w3.org/2000/svg" p-id="11511" xmlns:xlink="http://www.w3.org/1999/xlink" width="200" height="200"><defs><style type="text/css"></style></defs><path d="M155.9 567.4c0.4 1 0.7 2.1 1.1 3.2 0.6 1.9 1.3 3.7 2 5.5 0.5 1.5 1 2.9 1.6 4.3 2.8 7.5 5.9 14.8 9.2 22.1 1.6 3.4 3.2 6.7 4.8 10.1 0 0 0 0.1 0.1 0.1 1.7 3.5 3.5 7.1 5.4 10.5 0.4 0.7 0.7 1.3 1.1 2 1.4 2.6 2.9 5.2 4.4 7.8 2.8 4.8 5.6 9.7 8.6 14.4 1.8 2.9 3.6 5.7 5.5 8.5l141.5 211.6c82.3 123 263 123 345.4 0L828 655.8c44.8-67 65.7-144 63.7-220.1-0.1-1.9-0.1-3.9-0.2-5.8-0.1-1.3-0.2-2.7-0.2-4-0.1-2.2-0.3-4.4-0.4-6.6-0.1-1.8-0.3-3.5-0.4-5.3-0.6-7-1.3-14-2.3-21-0.3-2.2-0.6-4.4-1-6.5-0.4-2.2-0.7-4.4-1.1-6.5-0.7-4-1.5-8.1-2.3-12.1-0.1-0.4-0.2-0.9-0.3-1.3-0.4-2-0.9-4-1.3-6-0.5-2.2-1-4.3-1.5-6.4-0.7-2.6-1.3-5.2-2.1-7.8-0.8-3-1.6-5.9-2.5-8.8-0.9-3-1.8-5.9-2.8-8.8v-0.1c-0.9-2.8-1.9-5.6-2.8-8.4-1.2-3.5-2.5-7-3.8-10.4-0.9-2.4-1.8-4.7-2.8-7.1-1-2.6-2.1-5.1-3.2-7.7-1.6-3.6-3.1-7.1-4.8-10.5-1.1-2.4-2.2-4.7-3.4-7.1-3.8-7.7-7.9-15.4-12.3-22.8-0.9-1.6-1.8-3.1-2.8-4.6-1-1.7-2-3.4-3.1-5-0.2-0.4-0.4-0.7-0.6-1 0 0.1 0.1 0.1 0.1 0.2-14.7-23.5-32.3-45.6-52.6-65.9-73.9-73.9-170.6-110.8-267.4-110.8s-193.5 36.9-267.4 110.7C142.7 282 110.3 433.7 155.9 567.4z m751.6-160.5c8.9 90.9-14.1 182.7-64.9 258.7L701.1 877.1c-41.9 62.6-112 100.1-187.3 100.1-75.4 0-145.4-37.4-187.4-100.1L184.9 665.6C134.1 589.7 111 497.8 120 406.9c8.9-90.9 49.4-176.6 114-241.1 154.3-154.3 405.3-154.3 559.6 0 64.5 64.6 105.1 150.2 113.9 241.1z" fill="#8A278E" p-id="11512"></path><path d="M891.7 435.8c2 76-18.8 153.1-63.7 220.1L686.5 867.4c-82.3 123-263.1 123-345.4 0L199.6 655.8c-1.9-2.8-3.7-5.6-5.5-8.5-3-4.7-5.9-9.6-8.6-14.4-1.5-2.6-3-5.2-4.4-7.8-0.4-0.7-0.7-1.3-1.1-2-1.9-3.5-3.7-7-5.4-10.5-0.1 0-0.1-0.1-0.1-0.1-1.7-3.3-3.2-6.7-4.8-10.1-3.3-7.3-6.4-14.6-9.2-22.1-0.6-1.4-1.1-2.9-1.6-4.3-0.7-1.8-1.3-3.6-2-5.5-0.4-1-0.7-2.1-1.1-3.2 1.9 3 3.7 5.9 5.7 8.8L303 787.7c8.8 13.1 18.7 24.9 29.5 35.1l23.1 34.6c35.3 52.8 94.4 84.4 158 84.4 63.6 0 122.6-31.6 158-84.4L813.3 646c66.2-99 77.4-221.5 37.5-327.8-3.2-25.1-8.9-49.9-17.1-74l0.6 0.9c1.1 1.7 2.1 3.3 3.1 5 1 1.5 1.9 3.1 2.8 4.6 4.4 7.5 8.5 15.1 12.3 22.8 1.2 2.3 2.3 4.7 3.4 7.1 1.7 3.5 3.2 7 4.8 10.5 1.1 2.5 2.2 5.1 3.2 7.7 0.9 2.3 1.9 4.7 2.8 7.1 1.3 3.4 2.6 6.9 3.8 10.4 0.9 2.8 1.9 5.6 2.8 8.4v0.1c1 2.9 1.9 5.8 2.8 8.8 0.9 2.9 1.7 5.9 2.5 8.8l2.1 7.8c0.5 2.1 1 4.3 1.5 6.4 0.5 2 0.9 4 1.3 6 0.1 0.4 0.2 0.9 0.3 1.3 0.9 4 1.7 8 2.3 12.1 0.4 2.2 0.7 4.4 1.1 6.5 0.4 2.2 0.7 4.4 1 6.5 1 7 1.8 14 2.3 21 0.2 1.8 0.3 3.5 0.4 5.3 0.2 2.2 0.3 4.4 0.4 6.6 0.1 1.3 0.2 2.7 0.2 4 0.1 2 0.2 3.9 0.2 5.9z" fill="#8A278E" p-id="11513"></path><path d="M891.7 435.8c-0.1-2-0.1-3.9-0.2-5.8 0.1 1.9 0.2 3.8 0.2 5.8zM891.6 429.9c-0.1-1.3-0.2-2.6-0.2-4 0 1.3 0.1 2.7 0.2 4zM890.9 419.3c-0.1-1.8-0.3-3.5-0.4-5.3 0.2 1.8 0.3 3.6 0.4 5.3zM888.2 393.1c-0.3-2.2-0.6-4.4-1-6.5 0.4 2.1 0.7 4.3 1 6.5zM886.1 380c-0.7-4-1.5-8-2.3-12.1 0.8 4 1.6 8.1 2.3 12.1zM883.5 366.6c-0.4-2-0.9-4-1.3-6 0.4 2 0.9 4 1.3 6zM880.7 354.2c-0.7-2.6-1.3-5.2-2.1-7.8 0.7 2.5 1.4 5.1 2.1 7.8zM878.6 346.3c-0.8-3-1.6-5.9-2.5-8.8 0.9 2.9 1.7 5.9 2.5 8.8zM876.1 337.5c-0.9-3-1.8-5.9-2.8-8.8 1 2.9 1.9 5.8 2.8 8.8zM873.3 328.7c-0.9-2.8-1.9-5.6-2.8-8.4 1 2.8 2 5.6 2.8 8.4zM866.7 309.9c-0.9-2.4-1.9-4.7-2.8-7.1 1 2.4 1.9 4.7 2.8 7.1zM863.9 302.8c-1-2.6-2.1-5.1-3.2-7.7 1.1 2.6 2.2 5.1 3.2 7.7zM855.9 284.6z" fill="#00445D" p-id="11514"></path><path d="M850.8 318.2c40 106.3 28.8 228.8-37.5 327.8L671.8 857.6c-35.4 52.8-94.5 84.4-158 84.4-63.6 0-122.7-31.6-158-84.4L332.7 823c90.3 86.4 242.4 74.7 315.9-35.1L790 576.3c52.3-78.3 72-170.1 60.8-258.1z" fill="#EFB083" p-id="11515"></path><path d="M850.8 318.2c11.2 88-8.5 179.8-60.8 258.1L648.5 787.8C575 897.6 422.9 909.4 332.6 822.9L214.2 646c-95.4-142.5-76.6-334 44.7-455.3 70.3-70.3 162.6-105.4 254.9-105.4 92.3 0 184.6 35.1 254.8 105.4 37.1 37.1 64.6 80.7 82.2 127.5z m-4.7 94.9c3.4-7.7 3-16.9-0.9-25.3-3.9-8.3-10.8-14.4-18.7-16.6l-11.2-3.1c-59.5-16.7-117.3-12.8-167 11.1s-89.1 66.8-114.1 124c-3.4 7.7-3 16.9 1 25.3 3.9 8.3 10.7 14.3 18.7 16.6l11.2 3.1c24.3 6.8 48.3 10.2 71.6 10.2 33.7 0 66-7.2 95.4-21.3 49.6-23.8 89.1-66.7 114-124z m-280 372.1c0-7.9-6.4-14.3-14.3-14.3h-75.9c-7.9 0-14.3 6.4-14.3 14.3s6.4 14.3 14.3 14.3h75.9c7.8 0 14.3-6.5 14.3-14.3z m-73.7-256.6c4-8.4 4.4-17.6 1-25.3-25-57.2-64.5-100.1-114.1-124-49.7-23.9-107.4-27.7-167-11.1l-11.2 3.1c-8 2.2-14.8 8.3-18.7 16.6-4 8.4-4.4 17.6-1 25.3 25 57.2 64.5 100.2 114.1 124 29.4 14.1 61.7 21.3 95.4 21.3 23.3 0 47.3-3.4 71.6-10.2l11.2-3.1c7.9-2.3 14.7-8.3 18.7-16.6z" fill="#FCC58D" p-id="11516"></path><path d="M845.2 387.8c3.9 8.4 4.3 17.6 0.9 25.3-25 57.2-64.4 100.2-114.1 124-29.4 14.1-61.7 21.3-95.4 21.3-23.3 0-47.3-3.4-71.6-10.2l-11.2-3.1c-8-2.2-14.8-8.3-18.7-16.6-4-8.4-4.4-17.6-1-25.3 25-57.2 64.5-100.1 114.1-124 49.7-23.9 107.4-27.7 167-11.1l11.2 3.1c8 2.3 14.9 8.3 18.8 16.6zM830 406.1c0.6-1.2 0.8-2.7 0.8-4.2 0-5.7-3.9-12.2-9.1-13.7l-11.2-3.1c-2.1-0.6-4.3-1.2-6.4-1.7-1.3-0.4-2.6-0.7-3.8-0.9-3.4-0.8-6.8-1.6-10.2-2.2-101.2-20-189.7 25.1-235.5 121-0.6 1.1-1.1 2.3-1.6 3.4-0.9 1.9-1.8 3.7-2.6 5.7-0.5 1.2-0.8 2.6-0.8 4.1 0 5.8 3.9 12.3 9.1 13.8l11.2 3.1c112.7 31.5 212.7-16.6 260.1-125.3z" fill="#8A278E" p-id="11517"></path><path d="M840.2 254.7c-0.9-1.6-1.8-3.1-2.8-4.6 1 1.6 1.9 3.1 2.8 4.6z" fill="#00445D" p-id="11518"></path><path d="M833.7 244.2c8.2 24.1 13.9 48.9 17.1 74-17.6-46.8-45.1-90.4-82.2-127.5-70.2-70.3-162.5-105.4-254.8-105.4-92.3 0-184.6 35.1-254.9 105.4C137.7 312 118.8 503.5 214.2 646l118.4 176.9c-10.8-10.3-20.7-22-29.5-35.1L161.6 576.3c-2-2.9-3.8-5.9-5.7-8.8-45.6-133.7-13.2-285.4 90.6-389.2 73.8-73.8 170.6-110.7 267.4-110.7s193.5 36.9 267.3 110.7c20.2 20.3 37.8 42.4 52.5 65.9z" fill="#8A278E" p-id="11519"></path><path d="M833.7 244c0.2 0.4 0.4 0.7 0.6 1l-0.6-0.9v-0.1z" fill="#00445D" p-id="11520"></path><path d="M830.8 401.9c0 1.5-0.3 2.9-0.8 4.2-47.4 108.7-147.4 156.8-260.1 125.2l-11.2-3.1c-5.2-1.5-9.1-8-9.1-13.8 0-1.5 0.3-2.9 0.8-4.1 0.8-1.9 1.7-3.8 2.6-5.7 0.5-1.1 1-2.3 1.6-3.4 6.1 1.2 12.1 2.2 18.2 2.9-1.4 2.8-2.8 5.6-4.1 8.5l6 1.7c21.1 5.9 41.7 8.8 61.6 8.8 76.1 0 140.3-42.5 175.6-119.4l-6-1.7c-8.1-2.3-16.2-4.2-24.3-5.5 3-5.2 5.9-10.7 8.6-16.3 3.4 0.7 6.7 1.4 10.2 2.2 1.3 0.3 2.5 0.6 3.8 0.9 2.1 0.5 4.3 1.1 6.4 1.7l11.2 3.1c5.1 1.6 9 8.1 9 13.8z" fill="#8A278E" p-id="11521"></path><path d="M805.8 402.1l6 1.7c-35.3 76.9-99.5 119.4-175.6 119.4-19.8 0-40.4-2.9-61.6-8.8l-6-1.7c1.3-2.9 2.7-5.7 4.1-8.5 87.7 10.7 164.1-28.4 208.8-107.5 8.1 1.2 16.2 3.1 24.3 5.4z" fill="#A1D3EB" p-id="11522"></path><path d="M804.1 383.4c-1.3-0.3-2.5-0.6-3.8-0.9 1.2 0.2 2.5 0.5 3.8 0.9z" fill="#00445D" p-id="11523"></path><path d="M790.1 380.2c-2.7 5.7-5.6 11.1-8.6 16.3C692.4 381 614.7 420.7 572.7 504c-6-0.7-12.1-1.7-18.2-2.9 45.9-95.8 134.4-140.9 235.6-120.9z" fill="#8A278E" p-id="11524"></path><path d="M572.7 504.1c42-83.3 119.7-123.1 208.8-107.5-44.7 79.1-121.1 118.3-208.8 107.5z" fill="#C9EAFB" p-id="11525"></path><path d="M551.7 770.8c7.9 0 14.3 6.4 14.3 14.3s-6.4 14.3-14.3 14.3h-75.9c-7.9 0-14.3-6.4-14.3-14.3s6.4-14.3 14.3-14.3h75.9z" fill="#8A278E" p-id="11526"></path><path d="M554.5 501.2c-0.6 1.1-1.1 2.3-1.6 3.4 0.5-1.1 1.1-2.3 1.6-3.4z" fill="#00445D" p-id="11527"></path><path d="M493.4 503.2c3.4 7.7 3 16.9-1 25.3-3.9 8.3-10.7 14.3-18.7 16.6l-11.2 3.1c-24.3 6.8-48.3 10.2-71.6 10.2-33.7 0-66-7.2-95.4-21.3-49.6-23.9-89.1-66.8-114.1-124-3.4-7.7-3-16.9 1-25.3 3.9-8.3 10.7-14.4 18.7-16.6l11.2-3.1c59.5-16.7 117.2-12.8 167 11.1 49.6 23.9 89 66.8 114.1 124z m-24.5 24.9c6.5-1.8 11.1-11.6 8.3-17.9-0.9-2.1-1.9-4.2-2.9-6.3-0.9-2.1-1.9-4.1-3-6.1-46.1-93.1-133-137-232.3-118-3.7 0.7-7.3 1.5-11 2.3-1.5 0.3-3 0.7-4.5 1.1-2.2 0.6-4.4 1.1-6.6 1.8l-11.2 3.1c-6.5 1.8-11.1 11.6-8.3 17.9 37.8 86.6 108.9 134.7 193.3 134.7 21.5 0 43.9-3.1 66.9-9.6l11.3-3z" fill="#8A278E" p-id="11528"></path><path d="M477.2 510.3c2.8 6.2-1.8 16-8.3 17.9l-11.2 3.1c-22.9 6.4-45.3 9.6-66.9 9.6-84.4 0-155.6-48.1-193.3-134.7-2.8-6.2 1.8-16 8.3-17.9l11.2-3.1 6.6-1.8c1.5-0.4 3-0.7 4.5-1.1 3.7-0.8 7.3-1.7 11-2.3 2.8 5.7 5.7 11.1 8.8 16.3-8.6 1.4-17.3 3.3-26.2 5.8l-6 1.7c44.5 96.9 134.9 139.2 237.1 110.6l6-1.7c-1.9-4.1-3.8-8-5.9-11.9 6-0.7 12.1-1.6 18.3-2.8 1 2 2 4 3 6.1s2.1 4.1 3 6.2z" fill="#8A278E" p-id="11529"></path><path d="M474.4 504c-1-2.1-1.9-4.1-3-6.1 1 2 2 4 3 6.1z" fill="#00445D" p-id="11530"></path><path d="M458.9 512.6l-6 1.7C350.7 543 260.3 500.6 215.8 403.7l6-1.7c8.8-2.5 17.5-4.4 26.2-5.8 44.7 76.4 119.4 114.2 205.1 104.4 2 4 4 7.9 5.8 12z" fill="#A1D3EB" p-id="11531"></path><path d="M471.4 497.9c-6.2 1.2-12.3 2.1-18.3 2.8-42.1-80.4-118-118.9-205.1-104.4-3.1-5.2-6-10.7-8.8-16.3 99.2-19.1 186.1 24.8 232.2 117.9z" fill="#8A278E" p-id="11532"></path><path d="M453.1 500.7c-85.7 9.8-160.4-28-205.1-104.4 87.1-14.5 162.9 24 205.1 104.4z" fill="#C9EAFB" p-id="11533"></path><path d="M228.1 382.2c-1.5 0.4-3 0.7-4.5 1.1 1.5-0.3 3-0.7 4.5-1.1zM194.1 647.4c1.8 2.9 3.6 5.7 5.5 8.5-1.9-2.9-3.7-5.7-5.5-8.5zM181.1 625.1c1.4 2.6 2.9 5.2 4.4 7.8-1.5-2.5-3-5.1-4.4-7.8zM174.6 612.6c1.7 3.5 3.5 7.1 5.4 10.5-1.8-3.5-3.7-7-5.4-10.5zM169.8 602.5c1.6 3.4 3.1 6.7 4.8 10.1-1.6-3.4-3.2-6.8-4.8-10.1zM158.9 576.1c0.5 1.4 1 2.9 1.6 4.3-0.5-1.4-1-2.9-1.6-4.3zM157 570.6c0.6 1.9 1.3 3.7 2 5.5-0.7-1.8-1.4-3.6-2-5.5z" fill="#00445D" p-id="11534"></path><path d="M657.5 316H369.4c-10.6 0-19.1-8.6-19.1-19.1 0-10.6 8.6-19.1 19.1-19.1h288.2c10.6 0 19.1 8.6 19.1 19.1-0.1 10.6-8.6 19.1-19.2 19.1zM612.8 254.8H414.1c-10.6 0-19.1-8.6-19.1-19.1 0-10.6 8.6-19.1 19.1-19.1h198.7c10.6 0 19.1 8.6 19.1 19.1 0 10.6-8.5 19.1-19.1 19.1z" fill="#8A278E" p-id="11535"></path></svg>