<?xml version="1.0" standalone="no"?><!DOCTYPE svg PUBLIC "-//W3C//DTD SVG 1.1//EN" "http://www.w3.org/Graphics/SVG/1.1/DTD/svg11.dtd"><svg t="1586227072897" class="icon" viewBox="0 0 1024 1024" version="1.1" xmlns="http://www.w3.org/2000/svg" p-id="43317" xmlns:xlink="http://www.w3.org/1999/xlink" width="200" height="200"><defs><style type="text/css"></style></defs><path d="M136 232v560h752V360H525.255a104 104 0 0 1-73.54-30.46L354.178 232H136z m-40-72h274.745a32 32 0 0 1 22.628 9.373l109.254 109.254A32 32 0 0 0 525.255 288H928c17.673 0 32 14.327 32 32v512c0 17.673-14.327 32-32 32H96c-17.673 0-32-14.327-32-32V192c0-17.673 14.327-32 32-32z m296 464h240a8 8 0 0 1 8 8v48a8 8 0 0 1-8 8H392a8 8 0 0 1-8-8v-48a8 8 0 0 1 8-8z" fill="#5090F1" p-id="43318"></path></svg>