<?xml version="1.0" standalone="no"?><!DOCTYPE svg PUBLIC "-//W3C//DTD SVG 1.1//EN" "http://www.w3.org/Graphics/SVG/1.1/DTD/svg11.dtd"><svg t="1585806069404" class="icon" viewBox="0 0 1024 1024" version="1.1" xmlns="http://www.w3.org/2000/svg" p-id="12148" xmlns:xlink="http://www.w3.org/1999/xlink" width="200" height="200"><defs><style type="text/css"></style></defs><path d="M810 196.1L357 64.6c-5-1.4-10.4-0.4-14.7 2.8L208.4 169.3c-5.8 4.4-7.8 11.9-5.8 18.5v636.3L671.4 960V314.3L238.6 188.9l117.3-89.3 432.7 125.7v632.9c0 9.4 7.5 17 16.7 17 9.3 0 16.8-7.6 16.8-17V212.4c0-7.5-5-14.2-12.1-16.3z" p-id="12149"></path><path d="M360.5 119.9l-85.3 63.7 415 113.2-0.3 632.2 78.3-53.9V240.4z" p-id="12150"></path></svg>