<?xml version="1.0" standalone="no"?><!DOCTYPE svg PUBLIC "-//W3C//DTD SVG 1.1//EN" "http://www.w3.org/Graphics/SVG/1.1/DTD/svg11.dtd"><svg t="1587791708245" class="icon" viewBox="0 0 1024 1024" version="1.1" xmlns="http://www.w3.org/2000/svg" p-id="1925" xmlns:xlink="http://www.w3.org/1999/xlink" width="200" height="200"><defs><style type="text/css"></style></defs><path d="M742.9 379.1H307.8v-78.3c0-102.3 86.7-182.6 197.7-183.2 108.3 0.6 189.8 79.2 189.8 183.2 0 14.8 12 26.7 26.7 26.7s26.7-11.9 26.7-26.7C748.7 167.1 645.5 66 508 64.2c-0.8-0.1-1.6 0-2.5 0H503C363.3 66 254.4 169.3 254.4 300.8v80.6c-71.5 12.7-126 75.2-126 150.3v272.9c0 84.2 68.5 152.7 152.7 152.7H743c84.2 0 152.7-68.5 152.7-152.7V531.8c-0.1-84.2-68.6-152.7-152.8-152.7z m99.3 425.6c0 54.7-44.5 99.2-99.2 99.2H281.1c-54.7 0-99.2-44.5-99.2-99.2V531.8c0-54.7 44.5-99.2 99.2-99.2H743c54.7 0 99.2 44.5 99.2 99.2v272.9z" fill="#D6473B" p-id="1926"></path><path d="M643.7 636.8c0-72.6-59.1-131.7-131.7-131.7s-131.7 59.1-131.7 131.7c0 63.5 45.1 116.6 105 129v60c0 14.8 12 26.7 26.7 26.7s26.7-11.9 26.7-26.7v-60c59.8-12.5 105-65.6 105-129zM512 715c-43.2 0-78.3-35.1-78.3-78.3 0-43.2 35.1-78.3 78.3-78.3s78.3 35.1 78.3 78.3c-0.1 43.2-35.2 78.3-78.3 78.3z" fill="#D6473B" opacity=".5" p-id="1927"></path></svg>